<svg id="Capa_1" enable-background="new 0 0 512 512" height="512" viewBox="0 0 512 512" width="512" xmlns="http://www.w3.org/2000/svg"><g><path d="m456 340c-8.284 0-15-6.716-15-15v-120c0-8.284 6.716-15 15-15s15 6.716 15 15v120c0 8.284-6.716 15-15 15z" fill="#dfdef5"/><g><path d="m357.322 285.161c-2.849-3.279-6.979-5.161-11.322-5.161h-180c-4.343 0-8.473 1.882-11.322 5.161-2.849 3.278-4.137 7.631-3.531 11.931l21.818 154.908h166.071l21.818-154.908c.605-4.3-.683-8.653-3.532-11.931z" fill="#dfdef5"/><path d="m339.035 452 21.818-154.908c.605-4.3-.683-8.653-3.531-11.931-2.849-3.279-6.979-5.161-11.322-5.161h-90v172z" fill="#d2d0f2"/><path d="m256 340c-8.284 0-15 6.716-15 15v97h30v-97c0-8.284-6.716-15-15-15z" fill="#09607d"/><path d="m271 452v-97c0-8.284-6.716-15-15-15v112z" fill="#07485e"/><path d="m346 130h-180c-8.284 0-15-6.716-15-15v-60c0-30.327 24.673-55 55-55h100c30.327 0 55 24.673 55 55v60c0 8.284-6.716 15-15 15z" fill="#dfdef5"/><path d="m361 115v-60c0-30.327-24.673-55-55-55h-50v130h90c8.284 0 15-6.716 15-15z" fill="#d2d0f2"/><path d="m286 130c-8.284 0-15-6.716-15-15v-40c0-8.284 6.716-15 15-15s15 6.716 15 15v40c0 8.284-6.716 15-15 15z" fill="#07485e"/><path d="m226 130c-8.284 0-15-6.716-15-15v-40c0-8.284 6.716-15 15-15s15 6.716 15 15v40c0 8.284-6.716 15-15 15z" fill="#09607d"/><path d="m56 340c-8.284 0-15-6.716-15-15v-120c0-8.284 6.716-15 15-15s15 6.716 15 15v120c0 8.284-6.716 15-15 15z" fill="#fff5f5"/><path d="m463.5 212.5h-82.5v-75h82.5c20.711 0 37.5 16.789 37.5 37.5 0 20.711-16.789 37.5-37.5 37.5z" fill="#d2d0f2"/><path d="m486 400h-60c-8.284 0-15-6.716-15-15v-30c0-24.853 20.147-45 45-45 24.853 0 45 20.147 45 45v30c0 8.284-6.716 15-15 15z" fill="#d2d0f2"/><path d="m131 212.5h-82.5c-20.711 0-37.5-16.789-37.5-37.5 0-20.711 16.789-37.5 37.5-37.5h82.5z" fill="#dfdef5"/><path d="m86 400h-60c-8.284 0-15-6.716-15-15v-30c0-24.853 20.147-45 45-45 24.853 0 45 20.147 45 45v30c0 8.284-6.716 15-15 15z" fill="#dfdef5"/><path d="m356 310h-200c-30.327 0-55-24.673-55-55v-110c0-24.813 20.187-45 45-45h220c24.813 0 45 20.187 45 45v110c0 30.327-24.673 55-55 55z" fill="#fff5f5"/><circle cx="166" cy="165" fill="#09607d" r="15"/><path d="m366 100h-110v210h100c30.327 0 55-24.673 55-55v-110c0-24.813-20.187-45-45-45z" fill="#dfdef5"/><path d="m286 190h-15v-15c0-8.284-6.716-15-15-15s-15 6.716-15 15v15h-15c-8.284 0-15 6.716-15 15s6.716 15 15 15h15v15c0 8.284 6.716 15 15 15s15-6.716 15-15v-15h15c8.284 0 15-6.716 15-15s-6.716-15-15-15z" fill="#ff9100"/><path d="m286 190h-15v-15c0-8.284-6.716-15-15-15v90c8.284 0 15-6.716 15-15v-15h15c8.284 0 15-6.716 15-15s-6.716-15-15-15z" fill="#ff6426"/><path d="m366 512h-220c-8.284 0-15-6.716-15-15 0-33.137 26.863-60 60-60h130c33.137 0 60 26.863 60 60 0 8.284-6.716 15-15 15z" fill="#fff5f5"/><path d="m366 512c8.284 0 15-6.716 15-15 0-33.137-26.863-60-60-60h-65v75z" fill="#dfdef5"/></g></g></svg>